<svg xmlns="http://www.w3.org/2000/svg" xmlns:xlink="http://www.w3.org/1999/xlink" width="255" zoomAndPan="magnify" viewBox="0 0 191.25 37.5" height="50" preserveAspectRatio="xMidYMid meet" version="1.0"><defs><g/><clipPath id="1ee50d50c8"><path d="M 169.605469 0.0742188 L 182.695312 0.0742188 L 182.695312 37 L 169.605469 37 Z M 169.605469 0.0742188 " clip-rule="nonzero"/></clipPath></defs><g fill="#ffffff" fill-opacity="1"><g transform="translate(26.016598, 26.363279)"><g><path d="M 6.40625 0.25 C 5.457031 0.25 4.484375 0.0859375 3.484375 -0.234375 C 2.492188 -0.554688 1.550781 -1.070312 0.65625 -1.78125 L 2.28125 -4.28125 C 3.007812 -3.75 3.734375 -3.347656 4.453125 -3.078125 C 5.179688 -2.804688 5.863281 -2.671875 6.5 -2.671875 C 7.050781 -2.671875 7.457031 -2.765625 7.71875 -2.953125 C 7.976562 -3.140625 8.109375 -3.378906 8.109375 -3.671875 L 8.109375 -3.734375 C 8.109375 -3.929688 8.03125 -4.101562 7.875 -4.25 C 7.726562 -4.40625 7.523438 -4.535156 7.265625 -4.640625 C 7.003906 -4.742188 6.707031 -4.847656 6.375 -4.953125 C 6.039062 -5.054688 5.691406 -5.164062 5.328125 -5.28125 C 4.859375 -5.414062 4.382812 -5.578125 3.90625 -5.765625 C 3.4375 -5.953125 3.007812 -6.203125 2.625 -6.515625 C 2.238281 -6.828125 1.925781 -7.207031 1.6875 -7.65625 C 1.445312 -8.101562 1.328125 -8.65625 1.328125 -9.3125 L 1.328125 -9.359375 C 1.328125 -10.035156 1.453125 -10.632812 1.703125 -11.15625 C 1.960938 -11.6875 2.3125 -12.132812 2.75 -12.5 C 3.195312 -12.875 3.71875 -13.148438 4.3125 -13.328125 C 4.90625 -13.515625 5.546875 -13.609375 6.234375 -13.609375 C 7.078125 -13.609375 7.9375 -13.46875 8.8125 -13.1875 C 9.6875 -12.914062 10.492188 -12.539062 11.234375 -12.0625 L 9.78125 -9.4375 C 9.113281 -9.8125 8.460938 -10.113281 7.828125 -10.34375 C 7.191406 -10.570312 6.632812 -10.6875 6.15625 -10.6875 C 5.6875 -10.6875 5.332031 -10.597656 5.09375 -10.421875 C 4.863281 -10.242188 4.75 -10.019531 4.75 -9.75 L 4.75 -9.703125 C 4.75 -9.523438 4.820312 -9.363281 4.96875 -9.21875 C 5.125 -9.070312 5.328125 -8.9375 5.578125 -8.8125 C 5.828125 -8.6875 6.113281 -8.566406 6.4375 -8.453125 C 6.757812 -8.335938 7.109375 -8.222656 7.484375 -8.109375 C 7.953125 -7.953125 8.425781 -7.769531 8.90625 -7.5625 C 9.382812 -7.351562 9.816406 -7.097656 10.203125 -6.796875 C 10.585938 -6.503906 10.90625 -6.140625 11.15625 -5.703125 C 11.40625 -5.265625 11.53125 -4.738281 11.53125 -4.125 L 11.53125 -4.078125 C 11.53125 -3.328125 11.398438 -2.679688 11.140625 -2.140625 C 10.878906 -1.597656 10.515625 -1.148438 10.046875 -0.796875 C 9.585938 -0.453125 9.046875 -0.191406 8.421875 -0.015625 C 7.796875 0.160156 7.125 0.25 6.40625 0.25 Z M 6.40625 0.25 "/></g></g></g><g fill="#ffffff" fill-opacity="1"><g transform="translate(37.823106, 26.363279)"><g><path d="M 5.5 0.25 C 4.863281 0.25 4.265625 0.160156 3.703125 -0.015625 C 3.148438 -0.191406 2.664062 -0.453125 2.25 -0.796875 C 1.832031 -1.148438 1.503906 -1.582031 1.265625 -2.09375 C 1.023438 -2.601562 0.90625 -3.191406 0.90625 -3.859375 L 0.90625 -3.90625 C 0.90625 -4.632812 1.035156 -5.265625 1.296875 -5.796875 C 1.566406 -6.335938 1.9375 -6.78125 2.40625 -7.125 C 2.882812 -7.476562 3.453125 -7.742188 4.109375 -7.921875 C 4.773438 -8.097656 5.503906 -8.1875 6.296875 -8.1875 C 6.984375 -8.1875 7.582031 -8.132812 8.09375 -8.03125 C 8.601562 -7.925781 9.097656 -7.789062 9.578125 -7.625 L 9.578125 -7.859375 C 9.578125 -8.660156 9.332031 -9.269531 8.84375 -9.6875 C 8.363281 -10.101562 7.648438 -10.3125 6.703125 -10.3125 C 5.972656 -10.3125 5.328125 -10.25 4.765625 -10.125 C 4.203125 -10 3.613281 -9.816406 3 -9.578125 L 2.046875 -12.484375 C 2.785156 -12.796875 3.550781 -13.050781 4.34375 -13.25 C 5.144531 -13.457031 6.113281 -13.5625 7.25 -13.5625 C 8.300781 -13.5625 9.195312 -13.429688 9.9375 -13.171875 C 10.6875 -12.910156 11.300781 -12.539062 11.78125 -12.0625 C 12.28125 -11.5625 12.644531 -10.945312 12.875 -10.21875 C 13.113281 -9.488281 13.234375 -8.675781 13.234375 -7.78125 L 13.234375 0 L 9.5625 0 L 9.5625 -1.453125 C 9.09375 -0.929688 8.53125 -0.515625 7.875 -0.203125 C 7.226562 0.0976562 6.4375 0.25 5.5 0.25 Z M 6.65625 -2.375 C 7.550781 -2.375 8.269531 -2.585938 8.8125 -3.015625 C 9.351562 -3.453125 9.625 -4.023438 9.625 -4.734375 L 9.625 -5.40625 C 9.289062 -5.550781 8.921875 -5.671875 8.515625 -5.765625 C 8.109375 -5.859375 7.671875 -5.90625 7.203125 -5.90625 C 6.390625 -5.90625 5.75 -5.742188 5.28125 -5.421875 C 4.8125 -5.109375 4.578125 -4.648438 4.578125 -4.046875 L 4.578125 -4 C 4.578125 -3.488281 4.769531 -3.085938 5.15625 -2.796875 C 5.539062 -2.515625 6.039062 -2.375 6.65625 -2.375 Z M 6.65625 -2.375 "/></g></g></g><g fill="#ffffff" fill-opacity="1"><g transform="translate(51.880884, 26.363279)"><g><path d="M 1.703125 -13.40625 L 5.5 -13.40625 L 5.5 -11.5 C 5.71875 -11.789062 5.957031 -12.0625 6.21875 -12.3125 C 6.476562 -12.570312 6.765625 -12.800781 7.078125 -13 C 7.398438 -13.207031 7.75 -13.367188 8.125 -13.484375 C 8.507812 -13.597656 8.945312 -13.65625 9.4375 -13.65625 C 10.882812 -13.65625 12.003906 -13.210938 12.796875 -12.328125 C 13.585938 -11.441406 13.984375 -10.226562 13.984375 -8.6875 L 13.984375 0 L 10.1875 0 L 10.1875 -7.484375 C 10.1875 -8.378906 9.984375 -9.054688 9.578125 -9.515625 C 9.179688 -9.972656 8.613281 -10.203125 7.875 -10.203125 C 7.144531 -10.203125 6.566406 -9.972656 6.140625 -9.515625 C 5.710938 -9.054688 5.5 -8.378906 5.5 -7.484375 L 5.5 0 L 1.703125 0 Z M 1.703125 -13.40625 "/></g></g></g><g fill="#ffffff" fill-opacity="1"><g transform="translate(66.714098, 26.363279)"><g><path d="M 7.203125 0.25 C 6.421875 0.25 5.660156 0.0976562 4.921875 -0.203125 C 4.191406 -0.503906 3.539062 -0.945312 2.96875 -1.53125 C 2.40625 -2.125 1.953125 -2.847656 1.609375 -3.703125 C 1.265625 -4.566406 1.09375 -5.554688 1.09375 -6.671875 L 1.09375 -6.734375 C 1.09375 -7.847656 1.265625 -8.832031 1.609375 -9.6875 C 1.953125 -10.550781 2.398438 -11.28125 2.953125 -11.875 C 3.515625 -12.46875 4.160156 -12.910156 4.890625 -13.203125 C 5.628906 -13.503906 6.398438 -13.65625 7.203125 -13.65625 C 8.222656 -13.65625 9.0625 -13.453125 9.71875 -13.046875 C 10.375 -12.648438 10.925781 -12.1875 11.375 -11.65625 L 11.375 -18.265625 L 15.1875 -18.265625 L 15.1875 0 L 11.375 0 L 11.375 -1.921875 C 10.914062 -1.285156 10.351562 -0.765625 9.6875 -0.359375 C 9.03125 0.046875 8.203125 0.25 7.203125 0.25 Z M 8.1875 -2.984375 C 8.632812 -2.984375 9.050781 -3.066406 9.4375 -3.234375 C 9.832031 -3.410156 10.175781 -3.660156 10.46875 -3.984375 C 10.757812 -4.316406 10.992188 -4.710938 11.171875 -5.171875 C 11.347656 -5.628906 11.4375 -6.128906 11.4375 -6.671875 L 11.4375 -6.734375 C 11.4375 -7.285156 11.347656 -7.789062 11.171875 -8.25 C 10.992188 -8.707031 10.757812 -9.097656 10.46875 -9.421875 C 10.175781 -9.742188 9.832031 -9.992188 9.4375 -10.171875 C 9.050781 -10.347656 8.632812 -10.4375 8.1875 -10.4375 C 7.726562 -10.4375 7.300781 -10.347656 6.90625 -10.171875 C 6.519531 -9.992188 6.175781 -9.742188 5.875 -9.421875 C 5.570312 -9.097656 5.332031 -8.707031 5.15625 -8.25 C 4.988281 -7.800781 4.90625 -7.296875 4.90625 -6.734375 L 4.90625 -6.671875 C 4.90625 -6.128906 4.988281 -5.628906 5.15625 -5.171875 C 5.332031 -4.710938 5.570312 -4.316406 5.875 -3.984375 C 6.175781 -3.660156 6.519531 -3.410156 6.90625 -3.234375 C 7.300781 -3.066406 7.726562 -2.984375 8.1875 -2.984375 Z M 8.1875 -2.984375 "/></g></g></g><g fill="#ffffff" fill-opacity="1"><g transform="translate(82.848042, 26.363279)"><g><path d="M 1.78125 -18.265625 L 5.78125 -18.265625 L 5.78125 -14.890625 L 1.78125 -14.890625 Z M 1.875 -13.40625 L 5.671875 -13.40625 L 5.671875 0 L 1.875 0 Z M 1.875 -13.40625 "/></g></g></g><g fill="#ffffff" fill-opacity="1"><g transform="translate(89.651739, 26.363279)"><g><path d="M 1.703125 -13.40625 L 5.5 -13.40625 L 5.5 -11.484375 C 5.96875 -12.117188 6.53125 -12.640625 7.1875 -13.046875 C 7.851562 -13.453125 8.6875 -13.65625 9.6875 -13.65625 C 10.46875 -13.65625 11.222656 -13.503906 11.953125 -13.203125 C 12.691406 -12.910156 13.34375 -12.46875 13.90625 -11.875 C 14.476562 -11.28125 14.929688 -10.550781 15.265625 -9.6875 C 15.609375 -8.832031 15.78125 -7.847656 15.78125 -6.734375 L 15.78125 -6.671875 C 15.78125 -5.554688 15.609375 -4.566406 15.265625 -3.703125 C 14.929688 -2.847656 14.484375 -2.125 13.921875 -1.53125 C 13.359375 -0.945312 12.707031 -0.503906 11.96875 -0.203125 C 11.238281 0.0976562 10.476562 0.25 9.6875 0.25 C 8.664062 0.25 7.820312 0.0507812 7.15625 -0.34375 C 6.5 -0.75 5.945312 -1.21875 5.5 -1.75 L 5.5 4 L 1.703125 4 Z M 8.703125 -2.984375 C 9.148438 -2.984375 9.570312 -3.066406 9.96875 -3.234375 C 10.363281 -3.410156 10.707031 -3.660156 11 -3.984375 C 11.300781 -4.316406 11.539062 -4.707031 11.71875 -5.15625 C 11.894531 -5.601562 11.984375 -6.109375 11.984375 -6.671875 L 11.984375 -6.734375 C 11.984375 -7.285156 11.894531 -7.789062 11.71875 -8.25 C 11.539062 -8.707031 11.300781 -9.097656 11 -9.421875 C 10.707031 -9.742188 10.363281 -9.992188 9.96875 -10.171875 C 9.570312 -10.347656 9.148438 -10.4375 8.703125 -10.4375 C 8.253906 -10.4375 7.832031 -10.347656 7.4375 -10.171875 C 7.050781 -9.992188 6.710938 -9.742188 6.421875 -9.421875 C 6.128906 -9.097656 5.894531 -8.707031 5.71875 -8.25 C 5.539062 -7.789062 5.453125 -7.285156 5.453125 -6.734375 L 5.453125 -6.671875 C 5.453125 -6.128906 5.539062 -5.628906 5.71875 -5.171875 C 5.894531 -4.710938 6.128906 -4.316406 6.421875 -3.984375 C 6.710938 -3.660156 7.050781 -3.410156 7.4375 -3.234375 C 7.832031 -3.066406 8.253906 -2.984375 8.703125 -2.984375 Z M 8.703125 -2.984375 "/></g></g></g><g fill="#ffffff" fill-opacity="1"><g transform="translate(105.785683, 26.363279)"><g><path d="M 5.5 0.25 C 4.863281 0.25 4.265625 0.160156 3.703125 -0.015625 C 3.148438 -0.191406 2.664062 -0.453125 2.25 -0.796875 C 1.832031 -1.148438 1.503906 -1.582031 1.265625 -2.09375 C 1.023438 -2.601562 0.90625 -3.191406 0.90625 -3.859375 L 0.90625 -3.90625 C 0.90625 -4.632812 1.035156 -5.265625 1.296875 -5.796875 C 1.566406 -6.335938 1.9375 -6.78125 2.40625 -7.125 C 2.882812 -7.476562 3.453125 -7.742188 4.109375 -7.921875 C 4.773438 -8.097656 5.503906 -8.1875 6.296875 -8.1875 C 6.984375 -8.1875 7.582031 -8.132812 8.09375 -8.03125 C 8.601562 -7.925781 9.097656 -7.789062 9.578125 -7.625 L 9.578125 -7.859375 C 9.578125 -8.660156 9.332031 -9.269531 8.84375 -9.6875 C 8.363281 -10.101562 7.648438 -10.3125 6.703125 -10.3125 C 5.972656 -10.3125 5.328125 -10.25 4.765625 -10.125 C 4.203125 -10 3.613281 -9.816406 3 -9.578125 L 2.046875 -12.484375 C 2.785156 -12.796875 3.550781 -13.050781 4.34375 -13.25 C 5.144531 -13.457031 6.113281 -13.5625 7.25 -13.5625 C 8.300781 -13.5625 9.195312 -13.429688 9.9375 -13.171875 C 10.6875 -12.910156 11.300781 -12.539062 11.78125 -12.0625 C 12.28125 -11.5625 12.644531 -10.945312 12.875 -10.21875 C 13.113281 -9.488281 13.234375 -8.675781 13.234375 -7.78125 L 13.234375 0 L 9.5625 0 L 9.5625 -1.453125 C 9.09375 -0.929688 8.53125 -0.515625 7.875 -0.203125 C 7.226562 0.0976562 6.4375 0.25 5.5 0.25 Z M 6.65625 -2.375 C 7.550781 -2.375 8.269531 -2.585938 8.8125 -3.015625 C 9.351562 -3.453125 9.625 -4.023438 9.625 -4.734375 L 9.625 -5.40625 C 9.289062 -5.550781 8.921875 -5.671875 8.515625 -5.765625 C 8.109375 -5.859375 7.671875 -5.90625 7.203125 -5.90625 C 6.390625 -5.90625 5.75 -5.742188 5.28125 -5.421875 C 4.8125 -5.109375 4.578125 -4.648438 4.578125 -4.046875 L 4.578125 -4 C 4.578125 -3.488281 4.769531 -3.085938 5.15625 -2.796875 C 5.539062 -2.515625 6.039062 -2.375 6.65625 -2.375 Z M 6.65625 -2.375 "/></g></g></g><g fill="#ffffff" fill-opacity="1"><g transform="translate(119.843462, 26.363279)"><g><path d="M 1.703125 -13.40625 L 5.5 -13.40625 L 5.5 -11.5 C 5.71875 -11.789062 5.957031 -12.0625 6.21875 -12.3125 C 6.476562 -12.570312 6.765625 -12.800781 7.078125 -13 C 7.398438 -13.207031 7.75 -13.367188 8.125 -13.484375 C 8.507812 -13.597656 8.945312 -13.65625 9.4375 -13.65625 C 10.882812 -13.65625 12.003906 -13.210938 12.796875 -12.328125 C 13.585938 -11.441406 13.984375 -10.226562 13.984375 -8.6875 L 13.984375 0 L 10.1875 0 L 10.1875 -7.484375 C 10.1875 -8.378906 9.984375 -9.054688 9.578125 -9.515625 C 9.179688 -9.972656 8.613281 -10.203125 7.875 -10.203125 C 7.144531 -10.203125 6.566406 -9.972656 6.140625 -9.515625 C 5.710938 -9.054688 5.5 -8.378906 5.5 -7.484375 L 5.5 0 L 1.703125 0 Z M 1.703125 -13.40625 "/></g></g></g><g fill="#ffffff" fill-opacity="1"><g transform="translate(134.676676, 26.363279)"><g><path d="M 1.546875 -4 L 5.609375 -4 L 5.609375 0 L 1.546875 0 Z M 1.546875 -4 "/></g></g></g><g fill="#ffffff" fill-opacity="1"><g transform="translate(141.080142, 26.363279)"><g><path d="M 1.78125 -18.265625 L 5.78125 -18.265625 L 5.78125 -14.890625 L 1.78125 -14.890625 Z M 1.875 -13.40625 L 5.671875 -13.40625 L 5.671875 0 L 1.875 0 Z M 1.875 -13.40625 "/></g></g></g><g fill="#ffffff" fill-opacity="1"><g transform="translate(147.883839, 26.363279)"><g><path d="M 8.28125 0.296875 C 7.25 0.296875 6.289062 0.117188 5.40625 -0.234375 C 4.519531 -0.597656 3.753906 -1.09375 3.109375 -1.71875 C 2.472656 -2.34375 1.96875 -3.070312 1.59375 -3.90625 C 1.226562 -4.75 1.046875 -5.65625 1.046875 -6.625 L 1.046875 -6.671875 C 1.046875 -7.640625 1.226562 -8.546875 1.59375 -9.390625 C 1.96875 -10.234375 2.476562 -10.972656 3.125 -11.609375 C 3.78125 -12.242188 4.546875 -12.742188 5.421875 -13.109375 C 6.304688 -13.472656 7.273438 -13.65625 8.328125 -13.65625 C 9.359375 -13.65625 10.316406 -13.472656 11.203125 -13.109375 C 12.085938 -12.753906 12.847656 -12.265625 13.484375 -11.640625 C 14.128906 -11.015625 14.632812 -10.28125 15 -9.4375 C 15.375 -8.601562 15.5625 -7.703125 15.5625 -6.734375 L 15.5625 -6.671875 C 15.5625 -5.710938 15.375 -4.8125 15 -3.96875 C 14.632812 -3.125 14.125 -2.382812 13.46875 -1.75 C 12.820312 -1.113281 12.054688 -0.613281 11.171875 -0.25 C 10.296875 0.113281 9.332031 0.296875 8.28125 0.296875 Z M 8.328125 -2.984375 C 8.878906 -2.984375 9.367188 -3.078125 9.796875 -3.265625 C 10.222656 -3.453125 10.582031 -3.710938 10.875 -4.046875 C 11.175781 -4.378906 11.40625 -4.765625 11.5625 -5.203125 C 11.726562 -5.648438 11.8125 -6.125 11.8125 -6.625 L 11.8125 -6.671875 C 11.8125 -7.171875 11.726562 -7.640625 11.5625 -8.078125 C 11.394531 -8.523438 11.148438 -8.921875 10.828125 -9.265625 C 10.515625 -9.609375 10.140625 -9.878906 9.703125 -10.078125 C 9.273438 -10.273438 8.800781 -10.375 8.28125 -10.375 C 7.726562 -10.375 7.238281 -10.28125 6.8125 -10.09375 C 6.382812 -9.90625 6.019531 -9.644531 5.71875 -9.3125 C 5.425781 -8.976562 5.195312 -8.585938 5.03125 -8.140625 C 4.875 -7.703125 4.796875 -7.234375 4.796875 -6.734375 L 4.796875 -6.671875 C 4.796875 -6.171875 4.878906 -5.703125 5.046875 -5.265625 C 5.210938 -4.828125 5.453125 -4.4375 5.765625 -4.09375 C 6.085938 -3.75 6.460938 -3.476562 6.890625 -3.28125 C 7.316406 -3.082031 7.796875 -2.984375 8.328125 -2.984375 Z M 8.328125 -2.984375 "/></g></g></g><path fill="#ffffff" d="M 21.703125 35.425781 C 20.042969 35.222656 18.128906 35.886719 16.605469 34.953125 C 15.128906 34.042969 15.277344 31.894531 15.34375 30.378906 C 15.5 26.957031 16.308594 22.855469 13.992188 19.941406 C 13.441406 19.25 12.746094 18.6875 11.96875 18.335938 C 12.46875 18.066406 12.933594 17.710938 13.335938 17.304688 C 14.519531 16.109375 15.164062 14.496094 15.417969 12.835938 C 15.707031 10.960938 15.523438 9.074219 15.390625 7.199219 C 15.320312 6.234375 15.261719 5.261719 15.304688 4.292969 C 15.335938 3.59375 15.417969 2.753906 15.894531 2.207031 C 16.453125 1.570312 17.402344 1.410156 18.195312 1.394531 C 19.261719 1.367188 20.316406 1.539062 21.382812 1.410156 C 21.800781 1.355469 22.160156 0.296875 21.574219 0.371094 C 19.902344 0.574219 18.183594 0.0078125 16.585938 0.753906 C 15.046875 1.472656 14.554688 3.160156 14.488281 4.753906 C 14.402344 6.699219 14.703125 8.632812 14.753906 10.574219 C 14.796875 12.289062 14.648438 14.113281 13.773438 15.621094 C 12.929688 17.070312 11.300781 18.054688 9.628906 17.816406 C 9.265625 17.765625 8.886719 18.488281 9.0625 18.769531 C 9.074219 18.929688 9.160156 19.046875 9.367188 19.015625 C 10.878906 18.800781 12.355469 19.640625 13.289062 20.8125 C 14.367188 22.171875 14.722656 23.957031 14.78125 25.664062 C 14.847656 27.570312 14.554688 29.460938 14.507812 31.363281 C 14.472656 32.90625 14.496094 34.824219 15.851562 35.824219 C 17.433594 36.996094 19.53125 36.265625 21.3125 36.480469 C 21.75 36.535156 22.207031 35.488281 21.703125 35.425781 Z M 21.703125 35.425781 " fill-opacity="1" fill-rule="nonzero"/><g clip-path="url(#1ee50d50c8)"><path fill="#ffffff" d="M 170.113281 35.5 C 171.773438 35.296875 173.6875 35.960938 175.210938 35.027344 C 176.691406 34.117188 176.539062 31.96875 176.472656 30.453125 C 176.316406 27.03125 175.511719 22.929688 177.824219 20.015625 C 178.375 19.324219 179.070312 18.761719 179.847656 18.410156 C 179.347656 18.140625 178.882812 17.785156 178.480469 17.378906 C 177.300781 16.183594 176.652344 14.570312 176.398438 12.910156 C 176.109375 11.035156 176.292969 9.148438 176.429688 7.273438 C 176.496094 6.304688 176.554688 5.335938 176.511719 4.367188 C 176.480469 3.664062 176.402344 2.828125 175.921875 2.28125 C 175.363281 1.644531 174.414062 1.484375 173.621094 1.464844 C 172.554688 1.441406 171.5 1.613281 170.433594 1.480469 C 170.015625 1.429688 169.65625 0.371094 170.242188 0.445312 C 171.914062 0.648438 173.632812 0.0820312 175.234375 0.828125 C 176.769531 1.546875 177.261719 3.234375 177.332031 4.828125 C 177.414062 6.773438 177.113281 8.707031 177.0625 10.648438 C 177.019531 12.363281 177.167969 14.1875 178.042969 15.695312 C 178.886719 17.144531 180.515625 18.128906 182.1875 17.890625 C 182.550781 17.839844 182.929688 18.558594 182.753906 18.839844 C 182.742188 19.003906 182.65625 19.117188 182.449219 19.089844 C 180.9375 18.875 179.460938 19.714844 178.527344 20.886719 C 177.453125 22.242188 177.09375 24.03125 177.035156 25.738281 C 176.972656 27.640625 177.261719 29.535156 177.308594 31.4375 C 177.34375 32.980469 177.320312 34.898438 175.964844 35.898438 C 174.382812 37.070312 172.289062 36.335938 170.503906 36.554688 C 170.066406 36.609375 169.609375 35.558594 170.113281 35.5 Z M 170.113281 35.5 " fill-opacity="1" fill-rule="nonzero"/></g></svg>